HIERARCHY
ROOT Hips
{
  OFFSET -35.4901 99.2528 17.4586
  CHANNELS 6 Xposition Yposition Zposition Zrotation Xrotation Yrotation
  JOINT LeftUpLeg
  {
    OFFSET 8.64259 1.95398 -2.38835
    CHANNELS 3 Zrotation Xrotation Yrotation
    JOINT LeftLeg
    {
      OFFSET 43.7702 0 0
      CHANNELS 3 Zrotation Xrotation Yrotation
      JOINT LeftFoot
      {
        OFFSET 40.6238 0 0
        CHANNELS 3 Zrotation Xrotation Yrotation
        JOINT LeftToeBase
        {
          OFFSET 12.7242 0 0
          CHANNELS 3 Zrotation Xrotation Yrotation
          End Site
          {
            OFFSET 0 0 0
          }
        }
      }
    }
  }
  JOINT RightUpLeg
  {
    OFFSET -8.2249 1.95398 -2.59336
    CHANNELS 3 Zrotation Xrotation Yrotation
    JOINT RightLeg
    {
      OFFSET 43.5653 0 0
      CHANNELS 3 Zrotation Xrotation Yrotation
      JOINT RightFoot
      {
        OFFSET 40.6238 0 0
        CHANNELS 3 Zrotation Xrotation Yrotation
        JOINT RightToeBase
        {
          OFFSET 12.7242 0 0
          CHANNELS 3 Zrotation Xrotation Yrotation
          End Site
          {
            OFFSET 0 0 0
          }
        }
      }
    }
  }
  JOINT Spine
  {
    OFFSET 0.165834 0.87714 6.61349
    CHANNELS 3 Zrotation Xrotation Yrotation
    JOINT Spine1
    {
      OFFSET 7.38963 1.71661e-005 0
      CHANNELS 3 Zrotation Xrotation Yrotation
      JOINT Spine2
      {
        OFFSET 11.9445 1.14441e-005 0
        CHANNELS 3 Zrotation Xrotation Yrotation
        JOINT Spine3
        {
          OFFSET 14.7254 4.19617e-005 0
          CHANNELS 3 Zrotation Xrotation Yrotation
          JOINT Spine4
          {
            OFFSET 10.9679 0 0
            CHANNELS 3 Zrotation Xrotation Yrotation
            JOINT RightShoulder
            {
              OFFSET 2.46616 -1.6653 3.69651
              CHANNELS 3 Zrotation Xrotation Yrotation
              JOINT RightArm
              {
                OFFSET 13.0012 0 0
                CHANNELS 3 Zrotation Xrotation Yrotation
                JOINT RightForeArm
                {
                  OFFSET 28.7848 1.52588e-005 0
                  CHANNELS 3 Zrotation Xrotation Yrotation
                  JOINT RightHand
                  {
                    OFFSET 26.5688 1.52588e-005 0
                    CHANNELS 3 Zrotation Xrotation Yrotation
                    End Site
                    {
                      OFFSET 0 0 0
                    }
                  }
                }
              }
            }
            JOINT LeftShoulder
            {
              OFFSET 2.38034 -1.29275 -3.7523
              CHANNELS 3 Zrotation Xrotation Yrotation
              JOINT LeftArm
              {
                OFFSET 16.3182 6.10351e-005 0
                CHANNELS 3 Zrotation Xrotation Yrotation
                JOINT LeftForeArm
                {
                  OFFSET 27.0901 0 0
                  CHANNELS 3 Zrotation Xrotation Yrotation
                  JOINT LeftHand
                  {
                    OFFSET 24.5451 1.52588e-005 0
                    CHANNELS 3 Zrotation Xrotation Yrotation
                    End Site
                    {
                      OFFSET 0 0 0
                    }
                  }
                }
              }
            }
            JOINT Neck
            {
              OFFSET 5.0226 -0.0266342 0
              CHANNELS 3 Zrotation Xrotation Yrotation
              JOINT Head
              {
                OFFSET 6.69364 2.86102e-005 0
                CHANNELS 3 Zrotation Xrotation Yrotation
                End Site
                {
                  OFFSET 0 0 0
                }
              }
            }
          }
        }
      }
    }
  }
}
MOTION
Frames:	18
Frame Time:	0.0416667
-94.024 89.2061 37.1018 89.1479 -44.4211 85.6624 -167.269 22.4251 114.247 -36.5677 7.49205 -0.49936 64.781 3.33003 -2.57161 23.5069 -4.78584 7.78634 164.394 32.4498 69.4914 -48.0138 -22.3139 0.125741 75.4638 -7.54222 0.858707 32.112 0.148016 -0.971622 0.319278 8.26651 -90.1077 10.3416 0.586842 -0.264956 -1.32924 0.5746 -0.290535 -23.8654 0.639338 -0.0763262 -3.85278 0.639327 -0.076343 93.0469 -25.0119 -102.257 38.6184 0.34377 5.81153 -2.17329 -20.162 -25.9094 -25.7984 0.866874 -11.465 -81.1358 -46.4518 91.8533 -25.6013 9.50965 0.513552 7.102 3.20973 -27.5411 1.20667 -0.216463 -8.39894 -17.3094 18.2175 9.93391 -13.4851 17.175 14.8359 
-88.398 87.2014 30.3485 89.5423 -41.6117 88.782 -164.066 27.5117 114.442 -46.0299 7.72753 -2.33051 74.7051 6.72557 -7.58503 35.5988 -8.23726 15.3414 164.316 31.663 66.3666 -44.9401 -21.5621 -0.549234 69.36 -4.52613 2.36215 37.1745 0.411969 -2.98953 0.415093 8.3003 -90.3932 10.2747 0.647407 -0.836567 -1.39635 0.609949 -0.864253 -23.9315 0.868878 -0.603325 -3.91883 0.86888 -0.603326 93.0309 -25.4989 -102.131 36.5453 2.77984 2.70403 -3.94871 -20.7288 -27.855 -24.5756 0.954615 -12.3967 -80.9243 -45.3393 92.1151 -27.9507 10.3039 3.2576 7.68561 5.14243 -26.8787 -0.0363791 -0.183673 -8.84346 -16.7233 17.3382 5.96417 -14.854 15.9339 15.7566 
-81.6714 88.2009 22.6654 91.4161 -35.2753 91.1148 -162.711 30.1979 109.545 -53.6441 11.2965 -3.60663 81.8216 9.68069 -5.7393 28.6207 -4.32383 7.33016 166.073 26.0917 62.6411 -38.6778 -20.4715 -4.84302 56.5116 0.842533 2.81098 32.4949 0.420525 -2.44053 0.255717 8.39763 -90.517 10.0788 0.274153 -1.0498 -1.59256 0.227682 -1.06086 -24.1252 0.57697 -0.91889 -4.11252 0.57698 -0.91889 94.2196 -26.4976 -99.2569 34.9581 6.67157 2.27023 -7.34989 -22.1114 -32.14 -24.5888 1.03604 -13.1202 -81.9525 -43.05 90.2654 -29.1727 12.571 3.72371 7.01975 7.06408 -24.0582 -0.14425 -0.143802 -7.1729 -17.0473 14.7371 -0.323701 -14.1073 13.2879 16.287 
-75.8429 89.5958 15.3307 92.0499 -30.6256 91.1561 -163.516 28.0798 102.794 -55.344 10.8406 -4.42848 85.2299 10.802 -6.07474 25.0764 -4.18857 6.917 172.26 25.1547 61.8627 -45.1963 -20.9589 -9.91633 63.2283 -2.14669 -0.441698 15.3722 0.423815 0.728375 0.165364 8.44262 -90.4655 9.98836 0.118212 -0.933911 -1.68292 0.0770186 -0.938219 -24.2158 0.393415 -0.855222 -4.20316 0.39342 -0.85522 94.857 -26.3081 -97.9476 34.9971 6.72629 4.9951 -8.20933 -23.0734 -32.6016 -25.9376 1.05385 -12.9366 -82.8677 -43.1303 88.7739 -23.4411 16.295 -1.17386 3.97355 7.0591 -18.7026 -1.00163 -0.120164 -6.65211 -18.7732 12.298 -1.7658 -12.5545 11.2126 14.0644 
-71.7008 91.5463 9.67603 92.5935 -29.6016 91.1222 -165.708 23.8557 97.7061 -52.5082 6.8198 -5.75876 85.6975 10.8556 -4.84242 21.5052 -2.29652 3.99524 174.907 29.2815 67.1417 -50.3619 -14.4366 -7.48989 69.8553 -5.32418 -0.546158 15.3806 0.00913708 1.49479 0.0043903 8.67058 -90.3543 9.53174 -0.150913 -0.690854 -2.13937 -0.181159 -0.683557 -24.6731 0.0637058 -0.704269 -4.66041 0.0637015 -0.704274 94.9857 -25.7381 -97.8228 36.3395 3.70611 6.01113 -6.46036 -24.0007 -28.7456 -24.1998 0.83926 -12.5543 -82.795 -42.6553 88.8415 -22.7549 11.5219 -4.10077 4.3187 3.39948 -18.623 2.84408 -0.16135 -5.92447 -19.3502 11.7726 -0.0203872 -11.7376 10.959 12.3707 
-68.0519 93.9762 5.45319 91.1804 -30.2384 91.1485 -168.543 20.2561 94.3521 -46.4144 2.2627 -7.25324 84.2788 10.0656 -3.08047 18.6544 -1.15913 2.43785 178.417 34.4524 78.4713 -51.243 -15.8546 -5.18253 69.641 -5.34274 -1.25697 18.6026 -0.840796 2.97557 -0.185631 8.67071 -90.3027 9.53082 -0.506484 -0.561533 -2.14016 -0.530722 -0.538704 -24.6746 -0.31431 -0.687787 -4.66194 -0.314321 -0.687795 95.0857 -25.623 -97.6365 38.2705 1.79806 7.93071 -4.12888 -23.5139 -25.3927 -24.1129 0.677537 -11.5788 -83.0498 -41.5684 88.2965 -23.5549 8.29836 -6.65304 5.18481 0.868084 -21.0305 1.12667 -0.217351 -8.51467 -20.3405 12.1908 -0.122009 -12.5391 11.2204 13.4548 
-63.9178 95.1214 1.97341 89.9801 -28.5213 90.2255 -170.479 16.8498 91.0421 -41.1947 1.59103 -9.0016 83.394 9.55204 -1.72488 16.678 -1.15531 2.46926 179.763 37.8548 89.4939 -47.471 -19.4347 -3.05166 66.7235 -3.62502 -0.97059 19.1379 -0.0987868 1.49918 -0.814753 8.64933 -90.147 9.57448 -1.69066 -0.161601 -2.09539 -1.69613 -0.087026 -24.6381 -1.56389 -0.662354 -4.62541 -1.56391 -0.662366 95.7881 -24.8932 -96.284 41.3579 1.15083 9.86478 -2.3421 -22.5987 -22.7448 -24.8908 0.609344 -10.8119 -83.4098 -40.6225 87.5755 -23.2683 5.61838 -8.39367 7.57984 1.66482 -27.5472 0.990249 -0.268601 -10.3878 -20.7198 12.7961 -0.45002 -12.8092 11.6493 15.1074 
-59.156 94.6586 -1.4643 89.3677 -24.3295 88.0668 -171.503 14.3392 86.9435 -39.4584 4.03505 -11.0556 84.239 10.0965 -0.462935 12.4345 1.47748 -0.58174 175.053 36.7344 98.1171 -37.8751 -13.854 1.71715 61.3054 -0.576155 4.72292 27.3725 2.43091 -6.36598 -1.5047 8.62632 -89.9792 9.62691 -2.99036 0.272855 -2.04067 -2.97546 0.404313 -24.6025 -2.93401 -0.639289 -4.5899 -2.93399 -0.639274 97.1819 -24.7262 -93.2337 43.3397 2.59472 12.6603 -0.524446 -19.783 -20.4865 -23.8309 0.715778 -11.1952 -83.9489 -40.0207 86.5806 -22.3246 3.95256 -14.1932 9.63898 2.97818 -30.9551 0.18926 -0.250471 -11.6515 -20.1112 12.7211 -0.946066 -13.5887 11.375 15.8386 
-53.2288 92.3186 -4.99353 89.4531 -20.8023 86.6486 -170.964 11.8929 83.7816 -41.9511 7.57961 -13.8277 88.7203 12.204 -0.607775 10.0456 4.35615 -3.81783 170.964 30.4133 104.3 -23.8788 -4.00216 5.71756 62.5503 -0.923212 1.15261 28.1975 -0.560055 1.57126 -1.86269 8.56984 -89.8946 9.74556 -3.66551 0.498677 -1.92037 -3.64001 0.659724 -24.4965 -3.64565 -0.627515 -4.48381 -3.64568 -0.627529 97.9135 -24.7159 -91.6067 45.3199 3.71525 15.3333 0.79322 -19.0698 -17.5955 -23.7362 0.472706 -9.79388 -84.4986 -39.4586 85.5584 -20.8826 4.08386 -22.0868 11.2734 4.87 -32.7472 0.571432 -0.283128 -11.8546 -20.3916 12.0878 -2.49107 -13.9169 10.6043 16.0606 
-46.534 90.2417 -9.27023 88.3157 -16.9896 85.9887 -172.194 8.18316 79.9535 -41.3721 7.00771 -14.3753 92.5872 12.9966 -3.94603 5.55262 5.45836 -4.36497 172.115 30.6305 104.762 -22.7482 -0.00102405 5.41791 62.0348 -0.518049 3.34884 28.3331 -0.391042 1.15299 -2.19636 8.38954 -90.1064 10.107 -4.42512 0.1611 -1.55644 -4.41372 0.35607 -24.1494 -4.2686 -1.17877 -4.13679 -4.26861 -1.17878 98.4162 -24.7056 -90.4861 46.1481 3.20929 15.1378 1.79739 -18.7287 -16.0542 -23.9831 0.372268 -9.16315 -85.046 -39.6278 84.6479 -18.0196 6.38484 -29.5179 11.9897 7.21191 -32.3516 -0.161064 -0.236322 -11.9565 -19.3667 11.4469 -3.50649 -14.8552 9.76636 16.3192 
-38.0375 89.665 -14.7946 87.1103 -15.038 88.5698 -174.152 3.11308 77.974 -36.8248 7.11214 -13.3512 88.0516 11.3204 -2.762 8.92617 8.25979 -8.76469 173.567 32.8891 104.517 -31.2975 -4.84817 4.51686 68.8787 -3.68733 -0.978683 14.585 -1.73452 4.54852 -2.18577 8.34215 -91.0221 10.1687 -4.82237 -1.62678 -1.4938 -4.88929 -1.41253 -24.0776 -4.11022 -3.00254 -4.06497 -4.11022 -3.00255 98.5393 -23.6299 -90.3731 44.3754 4.84513 12.9732 0.413681 -18.9467 -17.9707 -24.7483 0.385272 -9.10532 -85.7477 -39.2199 83.3768 -17.174 11.9872 -36.2152 8.91886 7.4629 -27.1735 -1.8135 -0.130126 -12.4119 -18.4604 10.3734 -1.60846 -15.3682 8.66995 16.1251 
-30.28 89.6442 -19.1726 88.5448 -15.0616 90.2254 -167.824 1.2839 82.4721 -37.1449 20.0374 -13.2204 74.5799 4.95479 -7.82142 28.9919 -5.29648 10.2062 174.768 34.4108 103.609 -44.5318 -4.43614 2.6346 76.7284 -7.80598 -3.89613 7.71213 -2.81047 6.85197 -1.83545 8.35949 -91.3849 10.1047 -4.28832 -2.39003 -1.56102 -4.3893 -2.19878 -24.1168 -3.37211 -3.5686 -4.10413 -3.37212 -3.5686 98.3997 -24.1571 -90.6068 43.3134 4.61389 10.6362 0.26383 -18.1043 -18.5851 -25.2454 0.633762 -10.14 -85.6748 -38.7368 83.4159 -12.3149 20.5378 -39.7329 6.50193 10.4641 -25.6186 -2.86286 -0.0561972 -12.5479 -21.852 9.62754 -0.761122 -14.934 8.35671 13.0814 
-23.8622 91.1589 -22.3446 90.5215 -14.2098 90.2662 -160.28 10.5277 92.4582 -58.9752 24.5403 -8.37384 75.6515 6.62902 -1.94355 27.051 -2.57998 4.38471 175.736 29.6143 99.6296 -46.7919 -1.75484 0.842497 80.1287 -8.58077 0.863019 13.1842 -1.45536 4.41767 -1.48549 8.34409 -91.0054 10.1594 -3.41843 -1.70765 -1.50795 -3.49026 -1.55543 -24.0594 -2.74729 -2.65634 -4.04679 -2.7473 -2.65635 97.6846 -24.6449 -92.1293 47.0751 1.81415 9.46021 0.431216 -20.0894 -18.7052 -25.5758 0.73771 -10.8698 -85.2932 -40.4037 84.3569 -9.32249 24.5782 -33.7302 4.44727 8.17915 -26.9536 -2.21905 -0.0992444 -10.8759 -25.2987 8.79871 -2.98568 -14.2185 7.63934 11.0853 
-18.195 93.2591 -25.9448 92.0313 -16.2852 88.5162 -163.229 20.1669 99.4201 -65.2499 16.5999 -2.36751 77.5199 8.18905 0.384284 14.8596 1.08589 -0.321644 176.372 23.7205 94.4269 -44.5642 -5.91485 -1.3931 80.5691 -9.17949 0.268802 17.6137 -1.2618 3.90645 -1.02706 8.42429 -90.408 10.0195 -2.23227 -0.624713 -1.64965 -2.25759 -0.525822 -24.1959 -1.94133 -1.26693 -4.18325 -1.9413 -1.26693 97.4846 -23.2414 -92.8456 50.1432 -1.55998 7.06979 0.883521 -20.2286 -19.3519 -25.7422 0.853303 -11.4126 -84.575 -42.3264 85.8579 -15.2296 19.0536 -19.6725 4.7561 5.66457 -25.1521 -0.64259 -0.175549 -9.91153 -26.4909 8.99621 -3.10974 -11.9852 8.08191 10.4106 
-12.2539 94.129 -29.9857 92.7295 -20.4515 87.6488 -168.724 23.3943 107.794 -52.0195 18.1939 1.28653 73.0019 6.54822 0.82704 8.8311 1.66699 -0.506028 176.216 19.9497 89.7272 -44.2705 -10.6193 -3.0887 82.8141 -10.4395 1.02349 19.7214 -0.832346 2.90273 -0.669002 8.47476 -90.0922 9.92283 -1.37517 -0.0717373 -1.74739 -1.37698 -0.0111476 -24.2878 -1.29002 -0.48179 -4.27512 -1.29003 -0.481798 96.9445 -21.9218 -94.3673 49.1946 -1.67756 4.38708 0.24449 -20.368 -20.597 -26.2416 0.829576 -11.187 -84.026 -44.4177 87.0389 -20.4065 10.6254 -5.63862 3.94638 0.759534 -20.5991 2.75255 -0.24986 -8.26054 -27.73 9.98247 -1.02243 -11.753 9.31758 10.389 
-6.05166 93.5774 -34.5347 92.5003 -25.7442 87.1095 -171.21 20.9945 114.918 -32.7726 21.7179 4.33712 65.2706 3.20554 0.864286 7.3399 -0.370984 1.9521 174.485 19.5524 83.945 -46.4531 -18.3774 -3.82234 86.2795 -12.4222 2.09891 20.3012 -0.445128 2.02152 -0.417997 8.42819 -90.0221 10.0177 -0.843006 0.0260227 -1.65301 -0.840998 0.0630882 -24.1903 -0.811854 -0.228564 -4.17765 -0.811824 -0.228552 96.9363 -20.879 -94.6297 46.2037 0.871175 2.23023 -0.83282 -21.1748 -22.2565 -27.5507 0.846618 -11.0311 -83.2664 -45.717 88.4109 -25.4219 6.95809 5.8575 5.21694 2.70822 -18.3089 -0.144374 -0.14684 -7.09641 -28.1654 10.7704 1.80196 -12.3433 10.3582 10.7017 
0.190832 91.7294 -40.2573 91.5165 -32.0939 86.1185 -170.889 19.9755 119.179 -25.0982 25.3463 5.45788 62.4287 1.84479 0.679537 8.80554 0.381372 1.00058 174.182 23.079 77.1754 -51.4333 -26.7818 -5.30043 88.1918 -13.4309 3.01005 22.835 -0.323327 1.52196 -0.081526 8.32711 -89.9071 10.2197 -0.119927 0.194777 -1.45123 -0.111237 0.199853 -23.9864 -0.172911 0.14973 -3.97371 -0.172909 0.149722 96.404 -21.5132 -95.7304 42.9151 2.2671 1.95232 -2.17874 -18.9498 -24.6933 -26.4256 0.981216 -11.6533 -82.1464 -46.6737 90.2762 -28.6476 8.87674 13.7628 4.69158 3.59377 -19.0927 -4.39475 -0.0443644 -6.98501 -28.6423 11.0967 3.76121 -11.3577 11.0783 9.88533 
7.17178 89.2275 -47.8425 91.1693 -34.3389 85.4009 -170.387 21.2016 118.673 -25.818 29.9762 5.0079 59.5533 0.796158 -1.92279 14.5173 -2.11308 3.86388 176.271 24.6235 69.226 -53.866 -28.0641 -8.62188 89.7576 -12.2939 8.54267 27.8804 1.03741 -2.63513 0.114082 8.32438 -89.896 10.2248 0.274845 0.18282 -1.44609 0.282611 0.170542 -23.9813 0.207179 0.256969 -3.96866 0.207184 0.25697 95.5365 -22.1464 -97.5811 40.6862 4.0073 3.13854 -1.59704 -18.9914 -23.8746 -25.698 0.944003 -11.6667 -81.3246 -48.077 91.6689 -29.1147 8.68724 14.5795 5.15842 6.29048 -17.8019 -4.70773 -0.0629719 -5.69867 -28.5971 10.8719 4.91115 -11.4074 11.0406 8.98248 
